<?xml version="1.0" encoding="UTF-8" standalone="no"?>
<!-- Created with Inkscape (http://www.inkscape.org/) -->

<svg
   width="80.37355mm"
   height="42.100399mm"
   viewBox="0 0 80.37355 42.100399"
   version="1.1"
   id="svg962"
   inkscape:version="1.1.1 (3bf5ae0d25, 2021-09-20)"
   sodipodi:docname="favicon.svg"
   xmlns:inkscape="http://www.inkscape.org/namespaces/inkscape"
   xmlns:sodipodi="http://sodipodi.sourceforge.net/DTD/sodipodi-0.dtd"
   xmlns="http://www.w3.org/2000/svg"
   xmlns:svg="http://www.w3.org/2000/svg">
  <sodipodi:namedview
     id="namedview964"
     pagecolor="#505050"
     bordercolor="#eeeeee"
     borderopacity="1"
     inkscape:pageshadow="0"
     inkscape:pageopacity="0"
     inkscape:pagecheckerboard="0"
     inkscape:document-units="mm"
     showgrid="false"
     inkscape:zoom="0.53362093"
     inkscape:cx="343.87707"
     inkscape:cy="135.86424"
     inkscape:window-width="1440"
     inkscape:window-height="878"
     inkscape:window-x="0"
     inkscape:window-y="22"
     inkscape:window-maximized="1"
     inkscape:current-layer="layer1" />
  <defs
     id="defs959" />
  <g
     inkscape:label="Capa 1"
     inkscape:groupmode="layer"
     id="layer1"
     transform="translate(-136.67487,-121.43685)">
    <g
       id="g1341">
      <path
         d="m 141.99071,121.43685 c -2.94559,0 -5.31584,2.37123 -5.31584,5.3157 v 0.85051 c 0,0.15395 0,0.30591 0.0346,0.45645 0,0.15055 -0.0346,0.3022 -0.0346,0.45616 v 27.64168 c 0,0.20611 0,0.40882 0.0346,0.60698 -0.0346,0.1993 -0.0346,0.40201 -0.0346,0.60671 v 0.8505 c 0,2.94477 2.37025,5.31571 5.31584,5.31571 h 12.33243 c 2.94491,0 5.31585,-2.37094 5.31585,-5.31571 v -0.8505 c 0,-2.94448 -2.37094,-5.31572 -5.31585,-5.31572 h -4.25239 c -1.06102,0 -1.91365,-0.85363 -1.91365,-1.91365 0,-1.05974 0.85263,-1.91366 1.91365,-1.91366 h 19.56158 c 2.9449,0 5.31585,-2.37095 5.31585,-5.3157 v -0.85052 c 0,-2.94448 -2.37095,-5.3157 -5.31585,-5.3157 h -19.56158 c -1.06102,0 -1.91365,-0.85364 -1.91365,-1.91366 0,-1.05974 0.85263,-1.91365 1.91365,-1.91365 h 34.87077 c 2.94489,0 5.31584,-2.37095 5.31584,-5.31572 v -0.85051 c 0,-2.94447 -2.37095,-5.3157 -5.31584,-5.3157 z"
         style="fill:#d932d2;fill-opacity:1;fill-rule:nonzero;stroke:none;stroke-width:0.283504"
         id="path566141" />
      <path
         d="m 199.40049,132.91878 h 12.33244 c 2.94455,0 5.31549,-2.37095 5.31549,-5.31572 v -0.85051 c 0,-2.94447 -2.37094,-5.3157 -5.31549,-5.3157 h -12.33244 c -2.9449,0 -5.31584,2.37123 -5.31584,5.3157 v 0.85051 c 0,2.94477 2.37094,5.31572 5.31584,5.31572 z"
         style="fill:#04c0ff;fill-opacity:1;fill-rule:nonzero;stroke:none;stroke-width:0.283504"
         id="path566143" />
      <path
         d="m 184.09096,136.74609 c -2.94559,0 -5.31549,2.37122 -5.31549,5.3157 v 0.85052 c 0,2.94475 2.3699,5.3157 5.31549,5.3157 h 19.56193 c 1.05964,0 1.91364,0.85392 1.91364,1.91366 0,1.06002 -0.854,1.91365 -1.91364,1.91365 h -34.87111 c -2.94559,0 -5.31549,2.37124 -5.31549,5.31572 v 0.8505 c 0,2.94477 2.3699,5.31571 5.31549,5.31571 h 42.95115 c 2.94455,0 5.31549,-2.37094 5.31549,-5.31571 V 142.9965 c 0,-0.0121 -7e-4,-0.0242 -0.003,-0.0366 7.1e-4,-0.0152 0.003,-0.0322 0.003,-0.0477 v -0.85051 c 0,-2.94448 -2.37094,-5.31572 -5.31549,-5.31572 z"
         style="fill:#04c0ff;fill-opacity:1;fill-rule:nonzero;stroke:none;stroke-width:0.283504"
         id="path566145" />
    </g>
  </g>
</svg>
