<svg xmlns="http://www.w3.org/2000/svg" width="50.711" height="40.756" viewBox="0 0 50.711 40.756">
  <g id="logo-planet" transform="translate(-2.253 -5.348)">
    <path id="Trazado_1" data-name="Trazado 1" d="M9.85,13.009c-.283.34-.555.679-.815,1.041A106.1,106.1,0,0,0,23.094,26.92a109.751,109.751,0,0,0,12.61,8.5c.668.374,1.324.736,1.958,1.064.283-.34.555-.679.815-1.041a16.95,16.95,0,0,0,2.637-6.067c.091-.362.17-.724.238-1.075A18.192,18.192,0,0,0,15.906,8.357,16.894,16.894,0,0,0,9.85,13.009Z" transform="translate(4.136 0.822)" fill="#fff"/>
    <path id="Trazado_2" data-name="Trazado 2" d="M45.964,33.73a21.087,21.087,0,0,1-.838,1.981,28.292,28.292,0,0,1,3.611,5.252c.272.464.838,1.483.1,1.4a5.4,5.4,0,0,1-.623-.147,42.94,42.94,0,0,1-9.542-4.233A112.383,112.383,0,0,1,25.849,29.35,105.762,105.762,0,0,1,11.066,15.71a38.852,38.852,0,0,1-4.041-5.422,8.551,8.551,0,0,1-.634-1.177c-.283-.7.566-.577.792-.521a23.718,23.718,0,0,1,6.588,2.694,9.513,9.513,0,0,1,1.573-1.29,36.986,36.986,0,0,0-7.38-4.018c-2.615-1-4.652-.77-5.377.419C1.207,8.647,4.173,14.578,9.979,21.336A18.191,18.191,0,0,0,36.387,41.71a64.557,64.557,0,0,0,10.968,3.95c2.705.69,4.573.623,5.3-.555C53.91,43.046,51.284,39.243,45.964,33.73Z" transform="translate(0 0)" fill="#fff"/>
  </g>
</svg>
